<svg xmlns="http://www.w3.org/2000/svg" xmlns:xlink="http://www.w3.org/1999/xlink" viewBox="0 0 480.88 394.77"><defs><style>.cls-1,.cls-10{fill:#ffce68;}.cls-2{fill:#47648f;}.cls-3{fill:#798ec9;}.cls-4{fill:#ffd555;}.cls-5{fill:#dd7e62;}.cls-6{fill:#ffeaaa;}.cls-7{fill:#ffd1bb;}.cls-8{isolation:isolate;}.cls-18,.cls-9{fill:#abd5e6;}.cls-10,.cls-9{opacity:0.3;}.cls-11,.cls-13{fill:#1d262d;}.cls-11{opacity:0.1;}.cls-11,.cls-13,.cls-17,.cls-24,.cls-27{mix-blend-mode:multiply;}.cls-12{fill:#215b74;}.cls-13,.cls-17,.cls-24{opacity:0.2;}.cls-14,.cls-26{fill:#fff;}.cls-15{fill:#dc894e;}.cls-16{clip-path:url(#clip-path);}.cls-17{fill:#cc2a3a;}.cls-19{fill:#23809b;}.cls-20{clip-path:url(#clip-path-2);}.cls-21{clip-path:url(#clip-path-3);}.cls-22{clip-path:url(#clip-path-4);}.cls-23{clip-path:url(#clip-path-5);}.cls-24,.cls-27{fill:#d15579;}.cls-25{clip-path:url(#clip-path-6);}.cls-26{opacity:0.43;}.cls-27{opacity:0.5;}.cls-28{clip-path:url(#clip-path-7);}.cls-29{fill:#ffaa4d;}.cls-30{fill:#27305c;}.cls-31{clip-path:url(#clip-path-8);}.cls-32{fill:#ffa690;}.cls-33{fill:#0a303e;}.cls-34{fill:#e15c56;}</style><clipPath id="clip-path" transform="translate(26.22)"><rect class="cls-1" x="242.48" y="57.43" width="82.29" height="27.66"/></clipPath><clipPath id="clip-path-2" transform="translate(26.22)"><path class="cls-2" d="M41.53,365.22l-2,9.7s-12.37,2.69-13.11,5.52,26,.9,26,.9l2.83-16.12"/></clipPath><clipPath id="clip-path-3" transform="translate(26.22)"><path class="cls-2" d="M108.7,365.22l-.31,9.7s12.37,2.69,13.12,5.52-26,.9-26,.9L95,365.22"/></clipPath><clipPath id="clip-path-4" transform="translate(26.22)"><path class="cls-3" d="M58.47,251.72s-12.74,72.16-18.9,115.33c13.24,1.46,16,.57,16,.57L80.17,279.4H91c.79.86,3.23,88.22,3.23,88.22s11.1,1.64,15.48-.62c0,0,5-67.24,6.34-103.7Z"/></clipPath><clipPath id="clip-path-5" transform="translate(26.22)"><path class="cls-4" d="M93.68,177.35s-14,.79-17.85,4.54S63.68,211.1,58.47,251.72C79.27,273.66,116,263.3,116,263.3s1.86-74-.11-77.74C112.14,178.44,93.68,177.35,93.68,177.35Z"/></clipPath><clipPath id="clip-path-6" transform="translate(26.22)"><path class="cls-5" d="M58.51,159.71H82.76a0,0,0,0,1,0,0V296a7.38,7.38,0,0,1-7.38,7.38H65.9A7.38,7.38,0,0,1,58.51,296V159.71a0,0,0,0,1,0,0Z" transform="translate(273.74 99.83) rotate(74)"/></clipPath><clipPath id="clip-path-7" transform="translate(26.22)"><polygon class="cls-6" points="136.34 200.09 158.87 206.24 143.02 223.4 136.34 200.09"/></clipPath><clipPath id="clip-path-8" transform="translate(26.22)"><polyline class="cls-7" points="83.3 160.1 86.04 181.13 96.86 190.33 105.86 181.13 105.86 167.58"/></clipPath></defs><title>OBJECTS</title><g class="cls-8"><g id="Слой_2" data-name="Слой 2"><g id="OBJECTS"><path class="cls-9" d="M289.47,70.64c-15,2.83-30.26-3.06-43.56-10.53-18.52-10.39-35-24-53-35.26S154.71,4.38,133.47,4.34,90,15.22,81.6,34.73c-8.88,20.7-.64,44.73-4.48,66.91-6.23,36-42.69,61-48.77,97-3.48,20.62,3.85,41.87,15.52,59.22,24.85,36.91,71.26,58.85,115.24,52.15,28-4.27,53.51-19.13,74.76-37.84s38.7-41.27,56-63.67" transform="translate(26.22)"/><path class="cls-10" d="M302.27,330.05a190.12,190.12,0,0,1-14.51-19.69c-4.22-6.58-8.1-13.56-9.64-21.23-2.07-10.3.24-20.95,3.09-31.06,3.28-11.6,7.37-23.14,14.18-33.09s16.62-18.24,28.3-21.22c9.51-2.43,19.61-1.24,29.22-3.2,18.6-3.81,33-18.95,42.33-35.48,4.93-8.71,9.49-18.67,18.55-22.92,10.62-5,24.11.53,30.61,10.3s7,22.51,4.37,33.93-8.23,21.92-13.27,32.52-9.67,21.7-10.29,33.41c-1,19.33,8.94,38.3,6.2,57.46-1.54,10.77-7,20.64-14,29-5.75,7-12.63,13.16-20.78,17.05-12.19,5.84-26.57,6.14-39.62,2.62s-24.9-10.64-35.5-19" transform="translate(26.22)"/><ellipse class="cls-11" cx="249.91" cy="382.28" rx="221.04" ry="12.48"/><rect class="cls-12" x="190.27" y="61.11" width="239.17" height="319.07"/><rect class="cls-13" x="204.9" y="82.61" width="209.89" height="285.83"/><rect class="cls-14" x="204.9" y="77.73" width="209.89" height="285.83"/><polygon class="cls-15" points="189.22 80.97 189.22 60.06 210.13 60.06 189.22 80.97"/><polygon class="cls-15" points="430.48 80.97 430.48 60.06 409.57 60.06 430.48 80.97"/><polygon class="cls-15" points="189.22 361.14 189.22 382.05 210.13 382.05 189.22 361.14"/><polygon class="cls-15" points="430.48 361.14 430.48 382.05 409.57 382.05 430.48 361.14"/><path class="cls-1" d="M283.63,69h0c-8.25,0-14.94,3.81-14.94-4.44V63.26a14.94,14.94,0,0,1,14.94-14.94h0a14.94,14.94,0,0,1,14.94,14.94v1.27C298.57,72.78,291.88,69,283.63,69Z" transform="translate(26.22)"/><rect class="cls-13" x="270.83" y="80.97" width="78.05" height="7.02"/><rect class="cls-1" x="268.7" y="57.43" width="82.29" height="27.66"/><g class="cls-16"><rect class="cls-17" x="260.48" y="72.63" width="100.92" height="15.86"/></g><rect class="cls-18" x="225.9" y="130.69" width="28.72" height="28.72"/><path class="cls-18" d="M231.44,162.45h-34.8v-34.8h34.8Zm-33.75-1h32.7V128.7h-32.7Z" transform="translate(26.22)"/><rect class="cls-18" x="225.9" y="174.69" width="28.72" height="28.72"/><path class="cls-18" d="M231.44,206.44h-34.8V171.65h34.8Zm-33.75-1.05h32.7V172.7h-32.7Z" transform="translate(26.22)"/><rect class="cls-18" x="225.9" y="218.68" width="28.72" height="28.72"/><path class="cls-18" d="M231.44,250.44h-34.8v-34.8h34.8Zm-33.75-1.05h32.7v-32.7h-32.7Z" transform="translate(26.22)"/><path class="cls-19" d="M211.48,155.1,194.9,138.7a2.92,2.92,0,1,1,4.11-4.15l12.24,12.1,19.41-21.44a2.92,2.92,0,1,1,4.33,3.92Z" transform="translate(26.22)"/><path class="cls-19" d="M211.48,199.43,194.9,183a2.92,2.92,0,0,1,4.11-4.16L211.25,191l19.41-21.45a2.92,2.92,0,0,1,4.33,3.92Z" transform="translate(26.22)"/><path class="cls-19" d="M211.48,242.71l-16.58-16.4a2.92,2.92,0,0,1,4.11-4.16l12.24,12.11,19.41-21.45a2.92,2.92,0,0,1,4.33,3.92Z" transform="translate(26.22)"/><rect class="cls-18" x="225.9" y="262.68" width="28.72" height="28.72"/><path class="cls-18" d="M231.44,294.44h-34.8v-34.8h34.8Zm-33.75-1.05h32.7v-32.7h-32.7Z" transform="translate(26.22)"/><rect class="cls-18" x="225.9" y="306.68" width="28.72" height="28.72"/><path class="cls-18" d="M231.44,338.43h-34.8V303.64h34.8Zm-33.75-1.05h32.7V304.69h-32.7Z" transform="translate(26.22)"/><rect class="cls-19" x="268.05" y="134.99" width="127.08" height="3.47"/><rect class="cls-19" x="268.05" y="143.31" width="127.08" height="3.47"/><rect class="cls-19" x="268.05" y="151.64" width="39.29" height="3.47"/><rect class="cls-19" x="268.05" y="178.43" width="127.08" height="3.47"/><rect class="cls-19" x="268.05" y="186.76" width="127.08" height="3.47"/><rect class="cls-19" x="268.05" y="195.08" width="83.04" height="3.47"/><rect class="cls-19" x="268.05" y="221.88" width="127.08" height="3.47"/><rect class="cls-19" x="268.05" y="230.2" width="108.69" height="3.47"/><rect class="cls-19" x="268.05" y="238.52" width="39.29" height="3.47"/><rect class="cls-19" x="268.05" y="265.32" width="127.08" height="3.47"/><rect class="cls-19" x="268.05" y="273.64" width="64.04" height="3.47"/><rect class="cls-19" x="268.05" y="308.76" width="127.08" height="3.47"/><rect class="cls-19" x="268.05" y="317.09" width="127.08" height="3.47"/><rect class="cls-19" x="268.05" y="325.41" width="92.66" height="3.47"/><rect class="cls-19" x="249.62" y="99.65" width="120.81" height="8.56"/><path class="cls-14" d="M287.07,55a3.44,3.44,0,1,1-3.44-3.44A3.44,3.44,0,0,1,287.07,55Z" transform="translate(26.22)"/><path class="cls-2" d="M41.53,365.22l-2,9.7s-12.37,2.69-13.11,5.52,26,.9,26,.9l2.83-16.12" transform="translate(26.22)"/><g class="cls-20"><path class="cls-11" d="M37.4,360.9a2.94,2.94,0,0,0-1,2.68,5.18,5.18,0,0,0,1.25,2.69,13,13,0,0,0,6.27,3.83,24.92,24.92,0,0,0,7,1.15c2.93.07,6-.45,8.3-2.3s3.43-5.3,2-7.84a8.36,8.36,0,0,0-3.63-3.06,25.94,25.94,0,0,0-8.22-2.64" transform="translate(26.22)"/></g><path class="cls-2" d="M108.7,365.22l-.31,9.7s12.37,2.69,13.12,5.52-26,.9-26,.9L95,365.22" transform="translate(26.22)"/><g class="cls-21"><path class="cls-11" d="M95.51,360.07a12.69,12.69,0,0,0-4.57,4.52,6.86,6.86,0,0,0-1.1,3.26,3.7,3.7,0,0,0,1.34,3.07,4.37,4.37,0,0,0,2,.74,34.15,34.15,0,0,0,6,.45,16.54,16.54,0,0,0,9.65-3.9,11.16,11.16,0,0,0,3.28-12.8" transform="translate(26.22)"/></g><path class="cls-7" d="M163.61,140.45s-9.18-2.86-9-5.53,6.38-.48,6.38-.48-3.45-12.68-2-13.71,3.72,6.89,3.72,6.89.43-7.73,2.43-7.58,1.61,6.34,1.61,6.34,2.23-4.93,4.18-4.12-1.26,6.19-1.26,6.19,4.95-2.8,5.73-1.46-3.11,5.82-3.11,5.82,4.81,4.53-1,13.23c-1.59-.67-6.09-2.75-8.45-2.26Z" transform="translate(26.22)"/><path class="cls-4" d="M104,178.94s41.55,3.67,57.44-36.62c11.35-1.71,11.35,6.31,11.35,6.31s-15.72,59-64.46,51.27" transform="translate(26.22)"/><path class="cls-3" d="M58.47,251.72s-12.74,72.16-18.9,115.33c13.24,1.46,16,.57,16,.57L80.17,279.4H91c.79.86,3.23,88.22,3.23,88.22s11.1,1.64,15.48-.62c0,0,5-67.24,6.34-103.7Z" transform="translate(26.22)"/><g class="cls-22"><path class="cls-11" d="M33,252.45a92.72,92.72,0,0,0,123.77-9.77C118,239.86,78,237.6,41.3,250.33" transform="translate(26.22)"/></g><path class="cls-4" d="M93.68,177.35s-14,.79-17.85,4.54S63.68,211.1,58.47,251.72C79.27,273.66,116,263.3,116,263.3s1.86-74-.11-77.74C112.14,178.44,93.68,177.35,93.68,177.35Z" transform="translate(26.22)"/><g class="cls-23"><path class="cls-24" d="M75.41,252.52c21.59,1.74,39.7-9.21,47.5-15.25,1.53-1.19,3.68-1.35,5.16-2.6a5.54,5.54,0,0,0,2.11-5.12c-.62-3-4.13-4.24-7.12-4.82-14.28-2.72-29-1.68-43.11,1.43-6.29,1.39-34.93,5.94-25.2,17.42C59,248.52,69.13,252,75.41,252.52Z" transform="translate(26.22)"/></g><path class="cls-5" d="M58.51,159.71H82.76a0,0,0,0,1,0,0V296a7.38,7.38,0,0,1-7.38,7.38H65.9A7.38,7.38,0,0,1,58.51,296V159.71a0,0,0,0,1,0,0Z" transform="translate(299.96 99.83) rotate(74)"/><g class="cls-25"><rect class="cls-26" x="97.85" y="212.76" width="51.04" height="4.52" transform="translate(322.29 37.17) rotate(74)"/><rect class="cls-26" x="-8.16" y="243.15" width="51.04" height="4.52" transform="translate(274.7 161.09) rotate(74)"/><rect class="cls-12" x="-27.18" y="234.03" width="51.04" height="36.47" transform="translate(267.51 184.34) rotate(74)"/><rect class="cls-27" x="66.23" y="162.26" width="24.49" height="170.07" transform="translate(320.79 103.72) rotate(74)"/><rect class="cls-24" x="56.42" y="128.07" width="24.49" height="170.07" transform="translate(280.82 88.37) rotate(74)"/></g><polygon class="cls-6" points="162.56 200.09 185.09 206.24 169.24 223.4 162.56 200.09"/><g class="cls-28"><circle class="cls-19" cx="165.2" cy="204.77" r="14.61" transform="translate(-40.77 81.04) rotate(-23.05)"/></g><path class="cls-7" d="M73.06,236.25s6.9-.36,10,.95,4.59,2.08,4.59,2.08l6.17-1.77s-1.49,8.13-8.86,8.72a37.88,37.88,0,0,1-13.67-1.53Z" transform="translate(26.22)"/><path class="cls-4" d="M85.69,178.44s-43.57,2.69-47.25,41.16c-2.53,26.46,34.36,27.8,34.36,27.8l1.73-11.73S59,229.25,59,219.78s16.79-16.49,16.79-16.49Z" transform="translate(26.22)"/><path class="cls-29" d="M94.19,176.71A50.56,50.56,0,0,0,79,179.42L97,194.7l14.5-15.87S106.58,176.71,94.19,176.71Z" transform="translate(26.22)"/><path class="cls-30" d="M84.28,165.91s-6.51.5-8.78-1.56c-4.58-4.17-7.84-28-8-33s5.8-12.11,12.73-12.15c1-7.38,5.11-5.1,5.11-5.1s-1.94-3.1.5-5.33A51,51,0,0,1,88,113.4s3.84-3.16,12.56-1.55,14.1-2.57,16.16,1.65,5.45,17.11-.19,19.57S81.69,150.94,84.28,165.91Z" transform="translate(26.22)"/><polyline class="cls-7" points="109.52 160.1 112.26 181.13 123.07 190.33 132.08 181.13 132.08 167.58"/><g class="cls-31"><path class="cls-24" d="M92.88,149.79A7.44,7.44,0,0,0,86.75,154a15.09,15.09,0,0,0-1.35,7.61,17,17,0,0,0,1.23,6.16,15.91,15.91,0,0,0,14.78,8.83,9.76,9.76,0,0,0,8.12-5.7c1.44-3.6.14-7.77-2-11-2.45-3.74-6.14-6.84-10.52-7.73-1.87-.38-4-.27-5.4,1" transform="translate(26.22)"/></g><path class="cls-7" d="M87.31,123.4c-7.24,3.1-14.14,29.86-5.12,41.4s30.64,9.35,38.16.55C126.47,158.19,117.49,110.5,87.31,123.4Z" transform="translate(26.22)"/><path class="cls-32" d="M108.75,139.51c-1.27.6,1,13.14,1,13.14,1.71.22,7.06-2.64,7.06-3.76C116.82,148.89,111.17,138.35,108.75,139.51Z" transform="translate(26.22)"/><path class="cls-30" d="M73.25,150.8c.12-2.1,1.92-3.74,3.84-4.6s4.92,4.05,7,3.94c3.42-.18,6.21-1.85,6.59-3.24.27-1,0-12.57,1.49-14.23,2.47-2.82,6.73-3,10.48-2.94s8-.22,10.39-3.13a4.67,4.67,0,0,0,1.07-2.32,5.39,5.39,0,0,0-1.21-3.8c-2.75-3.76-7.87-5-12.52-4.76a28.42,28.42,0,0,0-19.7,10,32.92,32.92,0,0,0-7.57,20.94" transform="translate(26.22)"/><path class="cls-7" d="M85.34,152.14s.9-14-6.28-12-5.48,16.1,2.69,15.83" transform="translate(26.22)"/><path class="cls-30" d="M96.92,139.12c-.32.71.6,2.59,1.61,2.44s6-.79,6.44-1.95a2.38,2.38,0,0,0-1-2.83C103.24,136.55,97.32,138.24,96.92,139.12Z" transform="translate(26.22)"/><path class="cls-30" d="M112.36,135.35c-.36.67.26,2.64,1.17,2.6s5.35-.13,5.9-1.22a2.53,2.53,0,0,0-.63-2.92C118.22,133.49,112.8,134.52,112.36,135.35Z" transform="translate(26.22)"/><path class="cls-33" d="M103.33,147.39a1.74,1.74,0,0,0,1.17,0,1.64,1.64,0,0,0,1.32-1.26,3.72,3.72,0,0,0-.41-2.16,4.33,4.33,0,0,0-.59-1,1.33,1.33,0,0,0-2.2,0C102,143.92,102.05,146.81,103.33,147.39Z" transform="translate(26.22)"/><path class="cls-33" d="M115.5,144.44a1.68,1.68,0,0,0,1.17,0,1.63,1.63,0,0,0,1.33-1.26,3.82,3.82,0,0,0-.41-2.16,4.28,4.28,0,0,0-.6-1,1.31,1.31,0,0,0-2.19,0C114.15,141,114.22,143.87,115.5,144.44Z" transform="translate(26.22)"/><path class="cls-32" d="M83.29,146.25a4.22,4.22,0,0,0-2.24-3.44,2.89,2.89,0,0,0-2.89.05,1.9,1.9,0,0,0-.52,2.64c.32.4.84.66,1,1.14a2.12,2.12,0,0,1-.32,1.41,2.66,2.66,0,0,0,.16,2.89,1.76,1.76,0,0,0,1.71.46C82,150.9,83.42,148,83.29,146.25Z" transform="translate(26.22)"/><path class="cls-7" d="M79.46,237.35s5.77-2.65,7.24-2.84,2.22,1.12,1.84,1.89-4.49,3.22-4.49,3.22" transform="translate(26.22)"/><circle class="cls-34" cx="453.75" cy="107.37" r="6.24"/><path class="cls-12" d="M422,42.37a6,6,0,1,1-6-5.95A6,6,0,0,1,422,42.37Z" transform="translate(26.22)"/><path class="cls-1" d="M367.55,12.56a4.62,4.62,0,1,1-6.54,0A4.62,4.62,0,0,1,367.55,12.56Z" transform="translate(26.22)"/><circle class="cls-1" cx="464.61" cy="243.94" r="4.63"/><path class="cls-1" d="M323.17,4.38A4.38,4.38,0,1,1,318.79,0,4.38,4.38,0,0,1,323.17,4.38Z" transform="translate(26.22)"/><path class="cls-1" d="M16.66,305.76a4.38,4.38,0,1,1-4.38-4.38A4.38,4.38,0,0,1,16.66,305.76Z" transform="translate(26.22)"/><path class="cls-19" d="M354.76,44.49a2.12,2.12,0,1,1-2.12-2.12A2.12,2.12,0,0,1,354.76,44.49Z" transform="translate(26.22)"/><circle class="cls-19" cx="438.49" cy="2.19" r="2.19"/><circle class="cls-19" cx="478.69" cy="137.34" r="2.19"/><circle class="cls-15" cx="266.4" cy="20.26" r="4.43"/><circle class="cls-19" cx="154.97" cy="72.16" r="3.9"/><path class="cls-1" d="M132.65,34a5.25,5.25,0,1,1-5.25-5.24A5.25,5.25,0,0,1,132.65,34Z" transform="translate(26.22)"/><path class="cls-1" d="M55.26,89.52a5,5,0,1,1-5-5A5,5,0,0,1,55.26,89.52Z" transform="translate(26.22)"/><path class="cls-12" d="M105.86,74.27a3,3,0,1,1-3-3A3,3,0,0,1,105.86,74.27Z" transform="translate(26.22)"/><path class="cls-12" d="M41.32,283.56a3,3,0,1,1-3-3A3,3,0,0,1,41.32,283.56Z" transform="translate(26.22)"/><path class="cls-15" d="M58.47,40.54a4.13,4.13,0,1,1-4.12-4.12A4.12,4.12,0,0,1,58.47,40.54Z" transform="translate(26.22)"/><path class="cls-34" d="M15.8,153.54A3.52,3.52,0,1,1,12.28,150,3.52,3.52,0,0,1,15.8,153.54Z" transform="translate(26.22)"/></g></g></g></svg>