<svg id="Capa_1" enable-background="new 0 0 509.732 509.732" height="512" viewBox="0 0 509.732 509.732" width="512" xmlns="http://www.w3.org/2000/svg"><g><path d="m416.268 0h-322.804c-16.498 0-29.92 13.422-29.92 29.92v163.99c0 4.142 3.358 7.5 7.5 7.5s7.5-3.358 7.5-7.5v-163.99c0-8.227 6.693-14.92 14.92-14.92h322.804c8.228 0 14.921 6.693 14.921 14.92v361.895h-352.645v-167.905c0-4.142-3.358-7.5-7.5-7.5s-7.5 3.358-7.5 7.5v167.906 7.5 80.497c0 16.498 13.422 29.92 29.92 29.92h322.805c16.498 0 29.92-13.422 29.92-29.92v-80.497-7.5-361.896c-.001-16.498-13.423-29.92-29.921-29.92zm14.92 479.812c0 8.227-6.693 14.92-14.92 14.92h-322.804c-8.227 0-14.92-6.693-14.92-14.92v-72.997h352.645v72.997z"/><path d="m143.07 230.352v37.365.593 37.365.593 37.365c0 4.142 3.358 7.5 7.5 7.5h208.592c4.143 0 7.5-3.358 7.5-7.5v-37.365-.593-37.365-.593-37.365-37.958c0-.1-.011-.197-.015-.296.004-.099.015-.196.015-.296v-37.365c0-4.142-3.357-7.5-7.5-7.5h-110.459c-4.142 0-7.5 3.358-7.5 7.5s3.358 7.5 7.5 7.5h102.959v22.365h-193.592v-22.365h60.633c4.142 0 7.5-3.358 7.5-7.5s-3.358-7.5-7.5-7.5h-68.133c-4.142 0-7.5 3.358-7.5 7.5v37.365c0 .1.011.197.015.296-.004.099-.015.196-.015.296zm84.096 45.458h55.399v22.365h-55.399zm-15 22.364h-54.096v-22.364h54.096zm139.496-37.957h-54.097v-22.365h54.097zm-69.097 0h-55.399v-22.365h55.399zm15 15.593h54.097v22.365h-54.097zm54.097-52.958h-54.097v-22.958h54.097zm-69.097-22.957v22.958h-55.399v-22.958zm-70.399 22.957h-54.096v-22.958h54.096zm-54.096 15h54.096v22.365h-54.096zm124.495 75.915v22.365h-55.399v-22.365zm-124.495 0h54.096v22.365h-54.096zm193.592 22.365h-54.097v-22.365h54.097z"/><path d="m150.57 111.211h136.266c4.143 0 7.5-3.358 7.5-7.5s-3.357-7.5-7.5-7.5h-136.266c-4.142 0-7.5 3.358-7.5 7.5s3.358 7.5 7.5 7.5z"/><path d="m150.57 75.174h136.266c4.143 0 7.5-3.358 7.5-7.5s-3.357-7.5-7.5-7.5h-136.266c-4.142 0-7.5 3.358-7.5 7.5s3.358 7.5 7.5 7.5z"/><g><path d="m219.638 447.973 11.101-17.788c.51-.8.757-1.577.757-2.374 0-3.111-3.955-5.525-7.358-5.525-1.686 0-2.873.662-3.625 2.017l-8.598 14.997-8.594-14.99c-.756-1.361-1.942-2.023-3.628-2.023-3.403 0-7.358 2.413-7.358 5.525 0 .797.248 1.573.755 2.37l11.104 17.792-11.583 17.878c-.466.776-.683 1.462-.683 2.158 0 3.323 4.517 5.729 7.562 5.729 1.352 0 2.394-.468 2.943-1.333l9.483-16.108 9.475 16.093c.467.856 1.542 1.347 2.951 1.347 3.045 0 7.562-2.406 7.562-5.729 0-.697-.217-1.383-.691-2.173z"/><path d="m267.122 463.095h-14.982v-36.71c0-2.724-3.123-3.691-5.796-3.691s-5.796.967-5.796 3.691v43.186c0 2.583 2.653 3.759 5.118 3.759h21.457c2.443 0 3.556-2.653 3.556-5.117s-1.114-5.118-3.557-5.118z"/><path d="m296.688 441.146c-3.833-1.69-6.861-3.025-6.861-5.323 0-1.728 1.652-3.574 6.29-3.574 3.227 0 4.962.899 6.355 1.621.993.515 1.851.959 2.946.959 3.328 0 4.71-3.952 4.71-6.068 0-6.163-11.672-6.475-14.012-6.475-8.249 0-17.883 3.812-17.883 14.556 0 9.562 7.577 13.082 13.666 15.91 4.217 1.959 7.858 3.651 7.858 6.769 0 2.939-3.278 3.981-6.086 3.981-3.521 0-5.618-1.615-7.469-3.04-1.384-1.065-2.579-1.985-4.075-1.985-2.969 0-5.117 3.706-5.117 6.204 0 4.969 7.881 9.327 16.864 9.327 10.779 0 17.476-5.968 17.476-15.574.002-10.823-8.473-14.559-14.662-17.288z"/></g></g></svg>