<?phpxml version="1.0"?>
<svg xmlns="http://www.w3.org/2000/svg" xmlns:xlink="http://www.w3.org/1999/xlink" xmlns:svgjs="http://svgjs.com/svgjs" version="1.1" width="512" height="512" x="0" y="0" viewBox="0 0 507.749 507.749" style="enable-background:new 0 0 512 512" xml:space="preserve" class=""><g>
<g xmlns="http://www.w3.org/2000/svg">
	<g>
		<g>
			<path d="M354.197,131.911l24-21.248c-7.667-8.601-15.997-16.588-24.912-23.888l-20.288,24.8     C340.592,117.78,347.681,124.581,354.197,131.911z" fill="#ffffff" data-original="#000000" style="" class=""/>
			<path d="M385.653,181.415l29.408-12.624c-4.547-10.596-9.946-20.805-16.144-30.528l-26.992,17.152     C377.189,163.7,381.78,172.395,385.653,181.415z" fill="#ffffff" data-original="#000000" style="" class=""/>
			<path d="M416.517,223.351l-91.312,91.312l22.624,22.624l49.488-49.424c-18.803,99.758-114.916,165.384-214.674,146.581     C82.885,415.641,17.259,319.528,36.062,219.77S150.978,54.386,250.736,73.189c20.449,3.854,40.095,11.153,58.101,21.586     l16-27.664C221.69,7.074,89.404,42.022,29.368,145.169S4.279,380.602,107.426,440.638s235.433,25.088,295.469-78.058     c14.335-24.628,23.657-51.848,27.43-80.093l54.8,54.8l22.624-22.624L416.517,223.351z" fill="#ffffff" data-original="#000000" style="" class=""/>
			<polygon points="176.517,109.975 176.517,285.975 246.917,338.775 266.117,313.175 208.517,269.975 208.517,109.975    " fill="#ffffff" data-original="#000000" style="" class=""/>
		</g>
	</g>
</g>
<g xmlns="http://www.w3.org/2000/svg">
</g>
<g xmlns="http://www.w3.org/2000/svg">
</g>
<g xmlns="http://www.w3.org/2000/svg">
</g>
<g xmlns="http://www.w3.org/2000/svg">
</g>
<g xmlns="http://www.w3.org/2000/svg">
</g>
<g xmlns="http://www.w3.org/2000/svg">
</g>
<g xmlns="http://www.w3.org/2000/svg">
</g>
<g xmlns="http://www.w3.org/2000/svg">
</g>
<g xmlns="http://www.w3.org/2000/svg">
</g>
<g xmlns="http://www.w3.org/2000/svg">
</g>
<g xmlns="http://www.w3.org/2000/svg">
</g>
<g xmlns="http://www.w3.org/2000/svg">
</g>
<g xmlns="http://www.w3.org/2000/svg">
</g>
<g xmlns="http://www.w3.org/2000/svg">
</g>
<g xmlns="http://www.w3.org/2000/svg">
</g>
</g></svg>
